{"glyphs":{"0":{"ha":1104,"x_min":65,"x_max":1039,"o":"m 176 132 q 121 198 176 132 q 65 486 65 264 q 176 840 65 708 q 474 972 288 972 l 629 972 q 926 840 815 972 q 1038 486 1038 708 q 926 132 1038 264 q 629 0 815 0 l 474 0 q 176 132 288 0 m 526 769 q 383 692 436 769 q 329 486 329 615 q 383 280 329 357 q 526 203 436 203 l 576 203 q 720 280 667 203 q 774 486 774 357 q 720 692 774 615 q 576 769 667 769 l 526 769 z "},"1":{"ha":561,"x_min":53,"x_max":483,"o":"m 322 972 l 483 972 l 483 0 l 225 0 l 225 731 l 53 678 l 53 889 l 322 972 z "},"2":{"ha":1069,"x_min":63,"x_max":1003,"o":"m 663 972 q 910 899 818 972 q 1001 693 1001 825 q 938 507 1001 578 q 733 374 874 436 l 439 242 q 361 203 371 210 l 1001 203 l 1001 0 l 63 0 l 63 139 q 101 293 63 224 q 221 400 140 363 l 669 611 q 738 693 738 643 q 704 749 738 728 q 615 769 671 769 l 463 769 q 271 678 343 769 l 63 800 q 219 927 126 882 q 424 972 313 972 l 663 972 z "},"3":{"ha":1099,"x_min":51,"x_max":1032,"o":"m 740 679 q 706 745 740 721 q 604 769 672 769 l 465 769 q 274 678 346 769 l 65 800 q 222 927 129 882 q 426 972 315 972 l 665 972 q 913 899 821 972 q 1004 693 1004 825 q 875 493 1004 551 q 1032 281 1032 439 q 940 74 1032 147 q 693 0 849 0 l 413 0 q 208 45 301 0 q 51 172 115 90 l 260 294 q 451 203 332 203 l 632 203 q 731 228 694 203 q 768 294 768 253 q 731 361 768 336 q 632 386 694 386 l 453 386 l 453 589 l 632 589 q 719 611 697 589 q 740 679 740 633 z "},"4":{"ha":1128,"x_min":58,"x_max":1068,"o":"m 239 972 l 497 972 l 342 439 l 697 439 l 697 972 l 956 972 l 956 439 l 1067 439 l 1067 236 l 956 236 l 956 0 l 697 0 l 697 236 l 58 236 l 58 356 l 239 972 z "},"5":{"ha":1090,"x_min":50,"x_max":1031,"o":"m 50 172 l 258 294 q 450 203 331 203 l 644 203 q 736 227 706 203 q 767 294 767 251 q 736 362 767 338 q 644 386 706 386 l 481 386 q 389 357 425 386 l 142 436 l 219 972 l 915 972 l 915 769 l 449 769 l 419 574 q 544 589 478 589 l 692 589 q 938 509 846 589 q 1031 294 1031 429 q 938 80 1031 160 q 692 0 846 0 l 411 0 q 207 45 300 0 q 50 172 114 90 z "},"6":{"ha":1072,"x_min":63,"x_max":1008,"o":"m 194 138 q 128 206 194 138 q 63 486 63 275 q 194 835 63 697 q 526 972 325 972 l 646 972 q 850 927 757 972 q 1007 800 943 882 l 799 678 q 607 769 726 769 l 579 769 q 409 701 479 769 q 328 524 339 632 q 557 589 419 589 l 668 589 q 915 509 822 589 q 1007 294 1007 429 q 915 80 1007 160 q 668 0 822 0 l 526 0 q 194 138 325 0 m 372 310 q 565 203 439 203 l 621 203 q 713 227 682 203 q 743 294 743 251 q 713 362 743 338 q 621 386 682 386 l 493 386 q 413 365 446 386 q 372 310 379 343 z "},"7":{"ha":915,"x_min":42,"x_max":867,"o":"m 42 972 l 867 972 l 867 833 l 515 0 l 238 0 l 563 769 l 42 769 l 42 972 z "},"8":{"ha":1061,"x_min":65,"x_max":994,"o":"m 224 493 q 94 693 94 551 q 186 899 94 825 q 433 972 278 972 l 628 972 q 875 899 783 972 q 967 693 967 825 q 838 493 967 551 q 994 281 994 439 q 903 74 994 147 q 656 0 811 0 l 406 0 q 158 74 250 0 q 67 281 67 147 q 224 493 67 439 m 594 203 q 694 228 657 203 q 731 294 731 253 q 694 361 731 336 q 594 386 657 386 l 467 386 q 367 361 404 386 q 331 294 331 336 q 367 228 331 253 q 467 203 404 203 l 594 203 m 394 746 q 376 734 394 746 q 358 679 358 722 q 394 613 358 636 q 494 589 431 589 l 567 589 q 667 613 631 589 q 703 679 703 636 q 667 746 703 722 q 567 769 631 769 l 494 769 q 394 746 431 769 z "},"9":{"ha":1072,"x_min":64,"x_max":1010,"o":"m 274 294 q 465 203 346 203 l 493 203 q 663 272 593 203 q 744 449 733 340 q 515 383 653 383 l 404 383 q 158 463 250 383 q 65 678 65 543 q 158 892 65 813 q 404 972 250 972 l 546 972 q 878 835 747 972 q 1010 486 1010 697 q 878 138 1010 275 q 546 0 747 0 l 426 0 q 222 45 315 0 q 65 172 129 90 l 274 294 m 700 663 q 507 769 633 769 l 451 769 q 360 745 390 769 q 329 678 329 721 q 360 610 329 635 q 451 586 390 586 l 579 586 q 660 608 626 586 q 700 663 693 629 z "},"\u000b":{"ha":732,"x_min":69,"x_max":663,"o":"m 69 972 l 663 972 l 663 0 l 69 0 l 69 972 m 108 944 l 365 515 l 624 944 l 108 944 m 349 486 l 99 903 l 99 68 l 349 486 m 367 457 l 110 29 l 624 29 l 367 457 m 383 486 l 635 65 l 635 906 l 383 486 z "},"\f":{"ha":732,"x_min":69,"x_max":663,"o":"m 69 972 l 663 972 l 663 0 l 69 0 l 69 972 m 108 944 l 365 515 l 624 944 l 108 944 m 349 486 l 99 903 l 99 68 l 349 486 m 367 457 l 110 29 l 624 29 l 367 457 m 383 486 l 635 65 l 635 906 l 383 486 z "},"¡":{"ha":732,"x_min":69,"x_max":663,"o":"m 69 972 l 663 972 l 663 0 l 69 0 l 69 972 m 108 944 l 365 515 l 624 944 l 108 944 m 349 486 l 99 903 l 99 68 l 349 486 m 367 457 l 110 29 l 624 29 l 367 457 m 383 486 l 635 65 l 635 906 l 383 486 z "},"£":{"ha":732,"x_min":69,"x_max":663,"o":"m 69 972 l 663 972 l 663 0 l 69 0 l 69 972 m 108 944 l 365 515 l 624 944 l 108 944 m 349 486 l 99 903 l 99 68 l 349 486 m 367 457 l 110 29 l 624 29 l 367 457 m 383 486 l 635 65 l 635 906 l 383 486 z "},"¤":{"ha":732,"x_min":69,"x_max":663,"o":"m 69 972 l 663 972 l 663 0 l 69 0 l 69 972 m 108 944 l 365 515 l 624 944 l 108 944 m 349 486 l 99 903 l 99 68 l 349 486 m 367 457 l 110 29 l 624 29 l 367 457 m 383 486 l 635 65 l 635 906 l 383 486 z "},"¬":{"ha":732,"x_min":69,"x_max":663,"o":"m 69 972 l 663 972 l 663 0 l 69 0 l 69 972 m 108 944 l 365 515 l 624 944 l 108 944 m 349 486 l 99 903 l 99 68 l 349 486 m 367 457 l 110 29 l 624 29 l 367 457 m 383 486 l 635 65 l 635 906 l 383 486 z "},"‚":{"ha":732,"x_min":69,"x_max":663,"o":"m 69 972 l 663 972 l 663 0 l 69 0 l 69 972 m 108 944 l 365 515 l 624 944 l 108 944 m 349 486 l 99 903 l 99 68 l 349 486 m 367 457 l 110 29 l 624 29 l 367 457 m 383 486 l 635 65 l 635 906 l 383 486 z "},"‛":{"ha":732,"x_min":69,"x_max":663,"o":"m 69 972 l 663 972 l 663 0 l 69 0 l 69 972 m 108 944 l 365 515 l 624 944 l 108 944 m 349 486 l 99 903 l 99 68 l 349 486 m 367 457 l 110 29 l 624 29 l 367 457 m 383 486 l 635 65 l 635 906 l 383 486 z "},"\u0000":{"ha":0,"x_min":0,"x_max":0,"o":""},"\n":{"ha":0,"x_min":0,"x_max":0,"o":""},"\r":{"ha":0,"x_min":0,"x_max":0,"o":""}," ":{"ha":560,"x_min":0,"x_max":0,"o":""},"!":{"ha":401,"x_min":71,"x_max":329,"o":"m 71 972 l 329 972 l 329 606 l 246 219 l 154 219 l 71 606 l 71 972 m 97 57 l 97 121 q 114 161 97 144 q 154 178 131 178 l 246 178 q 286 161 269 178 q 303 121 303 144 l 303 57 q 286 17 303 33 q 246 0 269 0 l 154 0 q 114 17 131 0 q 97 57 97 33 z "},"\"":{"ha":511,"x_min":46,"x_max":465,"o":"m 235 1089 l 235 847 l 46 847 l 46 1089 l 235 1089 m 276 847 l 276 1089 l 465 1089 l 465 847 l 276 847 z "},"#":{"ha":992,"x_min":67,"x_max":925,"o":"m 792 972 l 792 772 l 925 772 l 925 583 l 792 583 l 792 389 l 925 389 l 925 200 l 792 200 l 792 0 l 589 0 l 589 200 l 403 200 l 403 0 l 200 0 l 200 200 l 67 200 l 67 389 l 200 389 l 200 583 l 67 583 l 67 772 l 200 772 l 200 972 l 403 972 l 403 772 l 589 772 l 589 972 l 792 972 m 403 389 l 589 389 l 589 583 l 403 583 l 403 389 z "},"$":{"ha":1111,"x_min":64,"x_max":1046,"o":"m 404 972 l 454 972 l 454 1147 l 657 1147 l 657 972 l 685 972 q 889 927 796 972 q 1046 800 982 882 l 838 678 q 646 769 765 769 l 465 769 q 363 745 397 769 q 329 679 329 721 q 363 613 329 638 q 465 589 397 589 l 707 589 q 953 509 861 589 q 1046 294 1046 429 q 953 80 1046 160 q 707 0 861 0 l 657 0 l 657 -175 l 454 -175 l 454 0 l 426 0 q 222 45 315 0 q 65 172 129 90 l 274 294 q 465 203 346 203 l 646 203 q 745 228 708 203 q 782 294 782 253 q 745 361 782 336 q 646 386 708 386 l 404 386 q 158 466 250 386 q 65 679 65 546 q 158 892 65 813 q 404 972 250 972 z "},"%":{"ha":1456,"x_min":54,"x_max":1403,"o":"m 118 484 q 86 518 118 484 q 54 654 54 551 q 118 824 54 757 q 281 892 182 892 l 375 892 q 538 824 474 892 q 601 654 601 757 q 538 484 601 551 q 375 417 474 417 l 281 417 q 118 484 182 417 m 253 726 q 240 713 253 726 q 226 654 226 699 q 253 582 226 610 q 319 554 279 554 l 336 554 q 403 582 376 554 q 429 654 429 610 q 403 726 429 699 q 336 754 376 754 l 319 754 q 253 726 279 754 m 1126 972 l 532 0 l 329 0 l 924 972 l 1126 972 m 918 148 q 886 182 918 148 q 854 318 854 215 q 918 488 854 421 q 1081 556 982 556 l 1175 556 q 1338 488 1274 556 q 1401 318 1401 421 q 1338 148 1401 215 q 1175 81 1274 81 l 1081 81 q 918 148 982 81 m 1053 390 q 1040 376 1053 390 q 1026 318 1026 363 q 1053 246 1026 274 q 1119 218 1079 218 l 1136 218 q 1203 246 1176 218 q 1229 318 1229 274 q 1203 390 1229 363 q 1136 418 1176 418 l 1119 418 q 1053 390 1079 418 z "},"&":{"ha":1117,"x_min":63,"x_max":1061,"o":"m 665 0 l 401 0 q 156 86 249 0 q 63 308 63 172 q 182 522 63 449 q 132 706 132 601 q 211 897 132 822 q 429 971 290 971 l 604 971 q 781 940 717 971 q 910 826 846 908 l 729 704 q 599 768 679 768 l 485 768 q 419 749 442 768 q 396 697 396 729 q 483 585 396 639 l 760 407 l 782 506 l 1046 506 l 1004 308 l 992 260 l 1060 215 l 929 -1 l 844 54 q 665 0 763 0 m 326 322 q 365 240 326 278 q 463 203 403 203 l 615 203 l 344 381 q 326 322 326 349 z "},"'":{"ha":282,"x_min":46,"x_max":235,"o":"m 235 1089 l 235 847 l 46 847 l 46 1089 l 235 1089 z "},"(":{"ha":517,"x_min":67,"x_max":514,"o":"m 514 1064 q 371 761 411 900 q 331 486 331 622 q 371 211 331 350 q 514 -92 411 72 l 311 -92 q 67 486 67 157 q 311 1064 67 815 l 514 1064 z "},")":{"ha":517,"x_min":3,"x_max":450,"o":"m 206 1064 q 450 486 450 815 q 206 -92 450 157 l 3 -92 q 146 211 106 72 q 186 486 186 350 q 146 761 186 622 q 3 1064 106 900 l 206 1064 z "},"*":{"ha":446,"x_min":51,"x_max":394,"o":"m 51 922 l 142 922 l 94 999 l 169 1046 l 222 961 l 275 1046 l 350 999 l 303 922 l 393 922 l 393 833 l 303 833 l 350 757 l 275 710 l 222 794 l 169 710 l 94 757 l 142 833 l 51 833 l 51 922 z "},"+":{"ha":744,"x_min":56,"x_max":689,"o":"m 56 581 l 278 581 l 278 803 l 467 803 l 467 581 l 689 581 l 689 392 l 467 392 l 467 169 l 278 169 l 278 392 l 56 392 l 56 581 z "},",":{"ha":304,"x_min":49,"x_max":256,"o":"m 49 121 q 65 161 49 144 q 106 178 82 178 l 197 178 q 238 161 221 178 q 254 121 254 144 l 254 57 q 222 -49 254 4 q 138 -146 189 -103 l 101 -100 q 138 -65 124 -86 q 151 -24 151 -43 q 135 7 151 -6 q 100 26 119 19 q 65 48 81 33 q 49 85 49 63 l 49 121 z "},"-":{"ha":608,"x_min":50,"x_max":558,"o":"m 50 581 l 558 581 l 558 392 l 50 392 l 50 581 z "},".":{"ha":304,"x_min":49,"x_max":254,"o":"m 49 121 q 65 161 49 144 q 106 178 82 178 l 197 178 q 238 161 221 178 q 254 121 254 144 l 254 57 q 238 17 254 33 q 197 0 221 0 l 106 0 q 65 17 82 0 q 49 57 49 33 l 49 121 z "},"/":{"ha":578,"x_min":-12,"x_max":538,"o":"m 190 -181 l -12 -181 l 335 972 l 538 972 l 190 -181 z "},":":{"ha":324,"x_min":58,"x_max":265,"o":"m 58 640 l 58 704 q 75 744 58 728 q 115 761 92 761 l 207 761 q 247 744 231 761 q 264 704 264 728 l 264 640 q 247 600 264 617 q 207 583 231 583 l 115 583 q 75 600 92 583 q 58 640 58 617 m 58 332 q 75 372 58 356 q 115 389 92 389 l 207 389 q 247 372 231 389 q 264 332 264 356 l 264 268 q 247 228 264 244 q 207 211 231 211 l 115 211 q 75 228 92 211 q 58 268 58 244 l 58 332 z "},";":{"ha":331,"x_min":61,"x_max":268,"o":"m 61 704 q 78 744 61 728 q 118 761 94 761 l 210 761 q 250 744 233 761 q 267 704 267 728 l 267 640 q 250 600 267 617 q 210 583 233 583 l 118 583 q 78 600 94 583 q 61 640 61 617 l 61 704 m 61 296 l 61 332 q 78 372 61 356 q 118 389 94 389 l 210 389 q 250 372 233 389 q 267 332 267 356 l 267 268 q 234 162 267 215 q 150 65 201 108 l 114 111 q 150 147 136 125 q 164 188 164 168 q 148 218 164 206 q 113 238 132 231 q 77 259 93 244 q 61 296 61 274 z "},"<":{"ha":564,"x_min":58,"x_max":497,"o":"m 497 831 l 497 614 l 244 486 l 497 358 l 497 142 l 58 378 l 58 594 l 497 831 z "},"=":{"ha":753,"x_min":60,"x_max":693,"o":"m 60 517 l 60 706 l 693 706 l 693 517 l 60 517 m 60 456 l 693 456 l 693 267 l 60 267 l 60 456 z "},">":{"ha":564,"x_min":67,"x_max":506,"o":"m 67 831 l 506 594 l 506 378 l 67 142 l 67 358 l 319 486 l 67 614 l 67 831 z "},"?":{"ha":1049,"x_min":65,"x_max":992,"o":"m 992 679 q 908 468 992 550 q 708 386 825 386 q 613 348 651 386 q 575 219 575 310 l 483 219 q 431 407 431 333 q 484 544 431 499 q 619 589 538 589 q 699 614 669 589 q 728 679 728 639 q 694 745 728 721 q 592 769 660 769 l 467 769 q 275 678 347 769 l 67 800 q 224 927 131 882 q 428 972 317 972 l 653 972 q 899 892 807 972 q 992 679 992 813 m 426 57 l 426 121 q 443 161 426 144 q 483 178 460 178 l 575 178 q 615 161 599 178 q 632 121 632 144 l 632 57 q 615 17 632 33 q 575 0 599 0 l 483 0 q 443 17 460 0 q 426 57 426 33 z "},"@":{"ha":1613,"x_min":64,"x_max":1551,"o":"m 142 35 q 103 104 142 35 q 64 347 64 174 q 142 660 64 521 q 357 877 219 799 q 667 956 494 956 l 1017 956 q 1404 817 1258 956 q 1550 458 1550 679 q 1445 150 1550 272 q 1169 28 1340 28 l 978 28 l 961 93 q 786 28 892 28 l 744 28 q 514 115 600 28 q 428 347 428 201 q 514 580 428 493 q 744 667 600 667 l 786 667 q 961 601 892 667 l 978 667 l 1169 667 l 1169 203 q 1274 277 1233 203 q 1314 458 1314 351 q 1226 683 1314 596 q 992 769 1138 769 l 692 769 q 411 650 522 769 q 300 347 300 531 q 411 44 300 164 q 692 -75 522 -75 l 950 -75 q 1072 -14 1032 -75 l 1253 -112 q 1138 -222 1210 -182 q 978 -261 1067 -261 l 667 -261 q 357 -183 494 -261 q 142 35 219 -104 m 806 214 q 901 244 865 214 q 936 325 936 274 l 936 369 q 901 451 936 421 q 806 481 865 481 l 794 481 q 699 444 735 481 q 664 347 664 408 q 699 250 664 286 q 794 214 735 214 l 806 214 z "},"A":{"ha":1160,"x_min":-1,"x_max":1160,"o":"m 429 972 l 729 972 l 1160 0 l 888 0 l 783 236 l 375 236 l 271 0 l -1 0 l 429 972 m 465 439 l 693 439 l 579 696 l 465 439 z "},"B":{"ha":1081,"x_min":76,"x_max":1049,"o":"m 626 972 q 951 722 951 972 q 875 560 951 615 q 1049 310 1049 497 q 654 0 1049 0 l 76 0 l 76 972 l 626 972 m 610 647 q 667 663 647 647 q 688 708 688 679 q 667 753 688 738 q 610 769 647 769 l 335 769 l 335 647 l 610 647 m 335 203 l 638 203 q 744 235 704 203 q 785 324 785 268 q 744 412 785 379 q 638 444 704 444 l 335 444 l 335 203 z "},"C":{"ha":1035,"x_min":36,"x_max":1017,"o":"m 167 138 q 102 206 167 138 q 36 486 36 275 q 167 835 36 697 q 500 972 299 972 l 656 972 q 860 927 767 972 q 1017 800 953 882 l 808 678 q 617 769 736 769 l 553 769 q 372 689 443 769 q 300 486 300 608 q 372 283 300 364 q 553 203 443 203 l 617 203 q 808 294 736 203 l 1017 172 q 860 45 953 90 q 656 0 767 0 l 500 0 q 167 138 299 0 z "},"D":{"ha":1079,"x_min":76,"x_max":1043,"o":"m 579 972 q 912 835 781 972 q 1043 486 1043 697 q 912 138 1043 275 q 579 0 781 0 l 76 0 l 76 972 l 579 972 m 335 203 l 526 203 q 708 283 636 203 q 779 486 779 364 q 708 689 779 608 q 526 769 636 769 l 335 769 l 335 203 z "},"E":{"ha":972,"x_min":76,"x_max":924,"o":"m 76 972 l 924 972 l 924 769 l 335 769 l 335 647 l 857 647 l 857 444 l 335 444 l 335 203 l 924 203 l 924 0 l 76 0 l 76 972 z "},"F":{"ha":951,"x_min":76,"x_max":924,"o":"m 76 0 l 76 972 l 924 972 l 924 769 l 335 769 l 335 439 l 857 439 l 857 236 l 335 236 l 335 0 l 76 0 z "},"G":{"ha":1117,"x_min":36,"x_max":1078,"o":"m 167 138 q 102 206 167 138 q 36 486 36 275 q 167 835 36 697 q 500 972 299 972 l 656 972 q 860 927 767 972 q 1017 800 953 882 l 808 678 q 617 769 736 769 l 553 769 q 372 689 443 769 q 300 486 300 608 q 372 283 300 364 q 553 203 443 203 l 603 203 q 753 257 693 203 q 814 389 814 311 l 538 389 l 538 592 l 1078 592 l 1078 389 q 1046 247 1078 317 q 959 123 1014 178 q 824 34 904 68 q 656 0 744 0 l 500 0 q 167 138 299 0 z "},"H":{"ha":1121,"x_min":76,"x_max":1043,"o":"m 76 972 l 335 972 l 335 647 l 785 647 l 785 972 l 1043 972 l 1043 0 l 785 0 l 785 444 l 335 444 l 335 0 l 76 0 l 76 972 z "},"I":{"ha":521,"x_min":47,"x_max":472,"o":"m 472 972 l 472 769 l 389 769 l 389 203 l 472 203 l 472 0 l 47 0 l 47 203 l 131 203 l 131 769 l 47 769 l 47 972 l 472 972 z "},"J":{"ha":494,"x_min":18,"x_max":461,"o":"m 118 122 l 118 769 l 35 769 l 35 972 l 460 972 l 460 769 l 376 769 l 376 150 q 106 -228 376 -150 l 18 -42 q 93 26 68 -11 q 118 122 118 63 z "},"K":{"ha":1089,"x_min":76,"x_max":1090,"o":"m 76 972 l 335 972 l 335 604 l 729 972 l 1024 972 l 665 638 l 1090 0 l 790 0 l 481 465 l 335 329 l 335 0 l 76 0 l 76 972 z "},"L":{"ha":904,"x_min":76,"x_max":896,"o":"m 76 972 l 335 972 l 335 203 l 896 203 l 896 0 l 76 0 l 76 972 z "},"M":{"ha":1274,"x_min":76,"x_max":1197,"o":"m 335 972 q 392 824 354 897 q 468 700 431 750 q 556 582 506 650 q 636 467 607 514 q 716 582 665 514 q 804 700 767 650 q 880 824 842 750 q 938 972 918 897 l 1196 972 l 1196 0 l 938 0 l 938 540 q 925 524 933 535 q 843 414 871 454 q 779 303 815 374 q 726 164 743 233 l 546 164 q 511 269 532 219 q 453 374 490 318 q 400 452 417 429 q 335 540 383 475 l 335 0 l 76 0 l 76 972 l 335 972 z "},"N":{"ha":1121,"x_min":76,"x_max":1043,"o":"m 335 972 q 405 879 353 926 q 514 798 457 832 q 653 713 571 764 q 785 624 735 663 l 785 972 l 1043 972 l 1043 0 l 785 0 l 785 331 q 715 424 767 376 q 606 505 663 471 q 467 590 549 539 q 335 679 385 640 l 335 0 l 76 0 l 76 972 l 335 972 z "},"O":{"ha":1157,"x_min":36,"x_max":1121,"o":"m 167 138 q 102 206 167 138 q 36 486 36 275 q 167 835 36 697 q 500 972 299 972 l 656 972 q 988 835 857 972 q 1119 486 1119 697 q 988 138 1119 275 q 656 0 857 0 l 500 0 q 167 138 299 0 m 553 769 q 372 689 443 769 q 300 486 300 608 q 372 283 300 364 q 553 203 443 203 l 603 203 q 784 283 713 203 q 856 486 856 364 q 784 689 856 608 q 603 769 713 769 l 553 769 z "},"P":{"ha":1075,"x_min":76,"x_max":1049,"o":"m 76 0 l 76 972 l 654 972 q 946 888 843 972 q 1049 649 1049 803 q 946 410 1049 494 q 654 325 843 325 l 335 325 l 335 0 l 76 0 m 335 528 l 638 528 q 746 560 707 528 q 785 649 785 592 q 746 738 785 706 q 638 769 707 769 l 335 769 l 335 528 z "},"Q":{"ha":1157,"x_min":36,"x_max":1121,"o":"m 167 138 q 102 206 167 138 q 36 486 36 275 q 167 835 36 697 q 500 972 299 972 l 656 972 q 988 835 857 972 q 1119 486 1119 697 q 1069 253 1119 358 q 926 83 1018 149 l 986 -4 l 818 -117 l 735 6 q 656 0 685 0 l 500 0 q 167 138 299 0 m 553 769 q 372 689 443 769 q 300 486 300 608 q 372 283 300 364 q 553 203 443 203 l 601 203 l 504 347 l 672 461 l 789 289 q 856 486 856 369 q 784 689 856 608 q 603 769 713 769 l 553 769 z "},"R":{"ha":1113,"x_min":76,"x_max":1090,"o":"m 76 972 l 654 972 q 946 888 843 972 q 1049 649 1049 803 q 998 467 1049 542 q 853 357 947 393 l 1090 0 l 790 0 l 574 325 l 335 325 l 335 0 l 76 0 l 76 972 m 335 528 l 638 528 q 746 560 707 528 q 785 649 785 592 q 746 738 785 706 q 638 769 707 769 l 335 769 l 335 528 z "},"S":{"ha":1061,"x_min":40,"x_max":1021,"o":"m 660 972 q 864 927 771 972 q 1021 800 957 882 l 813 678 q 621 769 740 769 l 440 769 q 338 745 372 769 q 304 679 304 721 q 338 613 304 638 q 440 589 372 589 l 682 589 q 928 509 836 589 q 1021 294 1021 429 q 928 80 1021 160 q 682 0 836 0 l 401 0 q 197 45 290 0 q 40 172 104 90 l 249 294 q 440 203 321 203 l 621 203 q 720 228 683 203 q 757 294 757 253 q 720 361 757 336 q 621 386 683 386 l 379 386 q 133 466 225 386 q 40 679 40 546 q 133 892 40 813 q 379 972 225 972 l 660 972 z "},"T":{"ha":929,"x_min":7,"x_max":921,"o":"m 921 972 l 921 769 l 593 769 l 593 0 l 335 0 l 335 769 l 7 769 l 7 972 l 921 972 z "},"U":{"ha":1069,"x_min":58,"x_max":1010,"o":"m 613 0 l 457 0 q 172 119 285 0 q 60 422 60 239 l 60 972 l 318 972 l 318 422 q 372 265 318 328 q 510 203 426 203 l 560 203 q 697 265 643 203 q 751 422 751 328 l 751 972 l 1010 972 l 1010 422 q 897 119 1010 239 q 613 0 785 0 z "},"V":{"ha":1128,"x_min":-3,"x_max":1131,"o":"m 414 0 l -3 972 l 269 972 l 564 285 l 858 972 l 1131 972 l 714 0 l 414 0 z "},"W":{"ha":1667,"x_min":3,"x_max":1664,"o":"m 322 0 l 3 972 l 272 972 l 476 353 l 697 972 l 969 972 l 968 968 l 1188 353 l 1392 972 l 1664 972 l 1344 0 l 1044 0 l 833 592 l 622 0 l 322 0 z "},"X":{"ha":1176,"x_min":-1,"x_max":1178,"o":"m 574 335 l 315 0 l -1 0 l 411 533 l 54 972 l 385 972 l 600 707 l 804 972 l 1121 972 l 763 508 l 1176 0 l 846 0 l 574 335 z "},"Y":{"ha":1069,"x_min":-11,"x_max":1081,"o":"m -11 972 l 289 972 l 535 622 l 781 972 l 1081 972 l 664 383 l 664 0 l 406 0 l 406 383 l -11 972 z "},"Ÿ":{"ha":1069,"x_min":-11,"x_max":1081,"o":"m -11 972 l 289 972 l 535 622 l 781 972 l 1081 972 l 664 383 l 664 0 l 406 0 l 406 383 l -11 972 z "},"Z":{"ha":939,"x_min":28,"x_max":908,"o":"m 56 972 l 894 972 l 894 833 l 400 203 l 908 203 l 908 0 l 28 0 l 28 139 l 522 769 l 56 769 l 56 972 z "},"[":{"ha":494,"x_min":76,"x_max":439,"o":"m 438 947 l 335 947 l 335 25 l 438 25 l 438 -178 l 76 -178 l 76 1150 l 438 1150 l 438 947 z "},"\\":{"ha":579,"x_min":40,"x_max":592,"o":"m 40 972 l 243 972 l 590 -181 l 388 -181 l 40 972 z "},"]":{"ha":494,"x_min":56,"x_max":418,"o":"m 56 947 l 56 1150 l 417 1150 l 417 -178 l 56 -178 l 56 25 l 158 25 l 158 947 l 56 947 z "},"^":{"ha":671,"x_min":40,"x_max":631,"o":"m 629 736 l 429 736 l 335 851 l 240 736 l 40 736 l 235 972 l 435 972 l 629 736 z "},"_":{"ha":746,"x_min":76,"x_max":668,"o":"m 76 -25 l 668 -25 l 668 -158 l 76 -158 l 76 -25 z "},"`":{"ha":276,"x_min":32,"x_max":222,"o":"m 32 1026 l 221 1026 l 221 731 l 115 731 l 32 1026 z "},"a":{"ha":878,"x_min":39,"x_max":808,"o":"m 132 98 q 85 147 132 98 q 39 347 39 196 q 132 597 39 499 q 369 694 225 694 l 411 694 q 599 614 521 694 l 617 694 l 808 694 l 808 0 l 617 0 l 599 81 q 411 0 521 0 l 369 0 q 132 98 225 0 m 431 186 q 534 226 493 186 q 575 325 575 265 l 575 369 q 534 469 575 429 q 431 508 493 508 l 419 508 q 316 463 357 508 q 275 347 275 417 q 316 232 275 278 q 419 186 357 186 l 431 186 z "},"b":{"ha":878,"x_min":69,"x_max":839,"o":"m 69 0 l 69 972 l 303 972 l 303 636 q 467 694 372 694 l 508 694 q 746 597 653 694 q 839 347 839 499 q 746 98 839 196 q 508 0 653 0 l 467 0 q 279 81 357 0 l 261 0 l 69 0 m 458 186 q 562 232 521 186 q 603 347 603 278 q 562 463 603 417 q 458 508 521 508 l 447 508 q 344 469 385 508 q 303 369 303 429 l 303 325 q 344 226 303 265 q 447 186 385 186 l 458 186 z "},"c":{"ha":822,"x_min":39,"x_max":797,"o":"m 369 694 l 522 694 q 683 655 611 694 q 797 546 754 615 l 617 446 q 494 508 576 508 l 425 508 q 317 463 360 508 q 275 347 275 418 q 317 231 275 276 q 425 186 360 186 l 494 186 q 617 247 576 186 l 797 149 q 683 40 754 79 q 522 0 611 0 l 369 0 q 132 98 225 0 q 39 347 39 196 q 132 597 39 499 q 369 694 225 694 z "},"d":{"ha":878,"x_min":39,"x_max":808,"o":"m 132 98 q 85 147 132 98 q 39 347 39 196 q 132 597 39 499 q 369 694 225 694 l 411 694 q 575 636 506 694 l 575 972 l 808 972 l 808 0 l 617 0 l 599 81 q 411 0 521 0 l 369 0 q 132 98 225 0 m 431 186 q 534 226 493 186 q 575 325 575 265 l 575 369 q 534 469 575 429 q 431 508 493 508 l 419 508 q 316 463 357 508 q 275 347 275 417 q 316 232 275 278 q 419 186 357 186 l 431 186 z "},"e":{"ha":839,"x_min":39,"x_max":799,"o":"m 369 694 l 467 694 q 703 604 610 694 q 797 375 797 514 l 753 268 l 293 268 q 347 208 313 231 q 425 186 382 186 l 494 186 q 617 247 576 186 l 797 149 q 683 40 754 79 q 522 0 611 0 l 369 0 q 132 98 225 0 q 39 347 39 196 q 132 597 39 499 q 369 694 225 694 m 293 426 l 551 426 q 503 486 538 464 q 425 508 469 508 q 347 486 382 508 q 293 426 313 464 z "},"f":{"ha":596,"x_min":22,"x_max":758,"o":"m 367 0 l 133 0 l 133 536 l 22 536 l 22 694 l 136 694 q 233 898 150 824 q 447 972 315 972 l 525 972 q 660 940 597 972 q 758 851 724 907 l 578 751 q 497 786 554 786 q 416 762 449 786 q 372 694 383 738 l 578 694 l 578 536 l 367 536 l 367 0 z "},"g":{"ha":881,"x_min":39,"x_max":851,"o":"m 369 694 l 508 694 q 558 692 525 694 l 589 810 l 850 810 l 739 604 q 839 347 839 504 q 746 98 839 196 q 508 0 653 0 l 449 0 l 410 -92 l 547 -92 q 669 -31 629 -92 l 850 -129 q 735 -238 807 -199 q 575 -278 664 -278 l 108 -278 l 108 -203 l 213 38 q 85 161 132 79 q 39 347 39 243 q 132 597 39 499 q 369 694 225 694 m 453 186 q 560 231 518 186 q 603 347 603 276 q 560 463 603 418 q 453 508 518 508 l 425 508 q 317 463 360 508 q 275 347 275 418 q 317 231 275 276 q 425 186 360 186 l 453 186 z "},"h":{"ha":893,"x_min":68,"x_max":836,"o":"m 458 508 l 447 508 q 343 470 383 508 q 303 369 303 432 l 303 0 l 69 0 l 69 972 l 303 972 l 303 640 q 467 694 372 694 l 522 694 q 751 606 665 694 q 836 369 836 518 l 836 0 l 603 0 l 603 369 q 563 470 603 432 q 458 508 522 508 z "},"i":{"ha":374,"x_min":69,"x_max":304,"o":"m 69 794 l 69 972 l 303 972 l 303 794 l 69 794 m 303 694 l 303 0 l 69 0 l 69 694 l 303 694 z "},"j":{"ha":374,"x_min":4,"x_max":303,"o":"m 4 -96 q 69 29 69 -61 l 69 694 l 303 694 l 303 29 q 251 -166 303 -86 q 106 -278 199 -246 l 4 -96 m 69 794 l 69 972 l 303 972 l 303 794 l 69 794 z "},"k":{"ha":901,"x_min":69,"x_max":893,"o":"m 69 972 l 303 972 l 303 492 l 549 694 l 849 694 l 554 440 l 892 0 l 603 0 l 378 288 l 303 224 l 303 0 l 69 0 l 69 972 z "},"l":{"ha":374,"x_min":69,"x_max":304,"o":"m 69 972 l 303 972 l 303 0 l 69 0 l 69 972 z "},"m":{"ha":1329,"x_min":69,"x_max":1271,"o":"m 433 508 l 422 508 q 335 476 368 508 q 303 392 303 444 l 303 0 l 69 0 l 69 694 l 261 694 l 276 629 q 442 694 342 694 l 497 694 q 726 589 647 694 q 925 694 794 694 l 981 694 q 1190 612 1111 694 q 1269 392 1269 529 l 1269 0 l 1036 0 l 1036 392 q 1003 476 1036 444 q 917 508 971 508 l 906 508 q 819 476 851 508 q 786 392 786 444 l 786 0 l 553 0 l 553 392 q 520 476 553 444 q 433 508 488 508 z "},"n":{"ha":893,"x_min":69,"x_max":836,"o":"m 458 508 l 447 508 q 343 470 383 508 q 303 369 303 432 l 303 0 l 69 0 l 69 694 l 261 694 l 278 618 q 467 694 351 694 l 522 694 q 751 606 665 694 q 836 369 836 518 l 836 0 l 603 0 l 603 369 q 563 470 603 432 q 458 508 522 508 z "},"o":{"ha":878,"x_min":39,"x_max":839,"o":"m 132 98 q 85 147 132 98 q 39 347 39 196 q 132 597 39 499 q 369 694 225 694 l 508 694 q 746 597 653 694 q 839 347 839 499 q 746 98 839 196 q 508 0 653 0 l 369 0 q 132 98 225 0 m 453 186 q 560 231 518 186 q 603 347 603 276 q 560 463 603 418 q 453 508 518 508 l 425 508 q 317 463 360 508 q 275 347 275 418 q 317 231 275 276 q 425 186 360 186 l 453 186 z "},"p":{"ha":878,"x_min":68,"x_max":839,"o":"m 69 -278 l 69 694 l 261 694 l 279 614 q 467 694 357 694 l 508 694 q 746 597 653 694 q 839 347 839 499 q 746 98 839 196 q 508 0 653 0 l 467 0 q 303 58 372 0 l 303 -278 l 69 -278 m 447 508 q 344 469 385 508 q 303 369 303 429 l 303 325 q 344 226 303 265 q 447 186 385 186 l 458 186 q 562 232 521 186 q 603 347 603 278 q 562 463 603 417 q 458 508 521 508 l 447 508 z "},"q":{"ha":879,"x_min":39,"x_max":808,"o":"m 132 98 q 85 147 132 98 q 39 347 39 196 q 132 597 39 499 q 369 694 225 694 l 411 694 q 599 614 521 694 l 617 694 l 808 694 l 808 -278 l 575 -278 l 575 58 q 411 0 506 0 l 369 0 q 132 98 225 0 m 419 508 q 316 463 357 508 q 275 347 275 417 q 316 232 275 278 q 419 186 357 186 l 431 186 q 534 226 493 186 q 575 325 575 265 l 575 369 q 534 469 575 429 q 431 508 493 508 l 419 508 z "},"r":{"ha":771,"x_min":68,"x_max":761,"o":"m 303 369 l 303 0 l 69 0 l 69 694 l 261 694 l 278 618 q 467 694 351 694 l 514 694 q 672 654 604 694 q 761 546 739 614 l 581 446 q 458 508 540 508 l 447 508 q 343 470 383 508 q 303 369 303 432 z "},"s":{"ha":831,"x_min":36,"x_max":794,"o":"m 519 694 q 680 655 608 694 q 794 546 751 615 l 614 446 q 492 508 574 508 l 349 508 q 299 499 313 508 q 286 468 286 489 q 299 438 286 447 q 349 428 313 428 l 533 428 q 715 372 649 428 q 781 214 781 317 q 715 56 781 111 q 533 0 649 0 l 311 0 q 151 40 222 0 q 36 149 79 79 l 217 247 q 339 186 257 186 l 482 186 q 531 197 517 186 q 544 228 544 207 q 531 259 544 249 q 482 269 517 269 l 297 269 q 116 324 182 269 q 50 482 50 379 q 116 640 50 585 q 297 694 182 694 l 519 694 z "},"t":{"ha":764,"x_min":19,"x_max":757,"o":"m 364 694 l 575 694 l 575 536 l 364 536 l 364 325 q 398 224 364 261 q 494 186 432 186 q 575 221 551 186 l 756 121 q 658 33 721 65 q 522 0 594 0 l 444 0 q 216 88 301 0 q 131 325 131 176 l 131 536 l 19 536 l 19 694 l 131 694 l 131 833 l 364 833 l 364 694 z "},"u":{"ha":892,"x_min":56,"x_max":822,"o":"m 433 186 l 444 186 q 549 224 508 186 q 589 325 589 263 l 589 694 l 822 694 l 822 0 l 631 0 l 614 76 q 425 0 540 0 l 369 0 q 141 88 226 0 q 56 325 56 176 l 56 694 l 289 694 l 289 325 q 329 224 289 263 q 433 186 369 186 z "},"v":{"ha":894,"x_min":8,"x_max":886,"o":"m 286 0 l 8 694 l 257 694 l 447 221 l 636 694 l 885 694 l 607 0 l 286 0 z "},"w":{"ha":1388,"x_min":10,"x_max":1376,"o":"m 247 0 l 11 694 l 256 694 l 403 261 l 542 694 l 836 694 l 978 253 l 1128 694 l 1376 694 l 1140 0 l 819 0 l 692 401 l 563 0 l 247 0 z "},"x":{"ha":917,"x_min":13,"x_max":906,"o":"m 906 0 l 610 0 l 446 190 l 294 0 l 13 0 l 300 360 l 13 694 l 308 694 l 465 513 l 610 694 l 892 694 l 611 343 l 906 0 z "},"y":{"ha":879,"x_min":7,"x_max":871,"o":"m 7 694 l 256 694 l 447 260 l 621 694 l 869 694 l 614 54 q 486 -151 564 -71 q 281 -278 408 -232 l 179 -96 q 317 -10 265 -67 l 7 694 z "},"z":{"ha":789,"x_min":38,"x_max":751,"o":"m 51 694 l 738 694 l 738 583 l 396 186 l 751 186 l 751 0 l 38 0 l 38 111 l 379 508 l 51 508 l 51 694 z "},"{":{"ha":617,"x_min":53,"x_max":565,"o":"m 463 779 q 413 584 463 650 q 242 486 363 518 q 413 388 363 454 q 463 193 463 322 q 481 59 463 93 q 565 25 500 25 l 565 -178 q 294 -92 383 -178 q 204 193 204 -6 q 196 287 204 250 q 166 347 188 324 q 121 381 144 369 q 53 407 97 393 l 53 565 q 121 591 97 579 q 166 626 144 603 q 196 685 188 649 q 204 779 204 722 q 294 1064 204 978 q 565 1150 383 1150 l 565 947 q 481 913 500 947 q 463 779 463 879 z "},"|":{"ha":356,"x_min":76,"x_max":279,"o":"m 279 972 l 279 -181 l 76 -181 l 76 972 l 279 972 z "},"}":{"ha":617,"x_min":51,"x_max":564,"o":"m 51 1150 q 323 1064 233 1150 q 413 779 413 978 q 421 685 413 722 q 451 626 429 649 q 496 591 472 603 q 564 565 519 579 l 564 407 q 496 381 519 393 q 451 347 472 369 q 421 287 429 324 q 413 193 413 250 q 323 -92 413 -6 q 51 -178 233 -178 l 51 25 q 135 59 117 25 q 154 193 154 93 q 204 388 154 322 q 375 486 254 454 q 204 584 254 518 q 154 779 154 650 q 135 913 154 879 q 51 947 117 947 l 51 1150 z "}," ":{"ha":560,"x_min":0,"x_max":0,"o":""},"¢":{"ha":871,"x_min":60,"x_max":818,"o":"m 363 832 l 363 1064 l 565 1064 l 565 833 q 713 789 647 828 q 818 685 778 750 l 638 585 q 515 647 597 647 l 446 647 q 338 602 381 647 q 296 486 296 557 q 338 370 296 415 q 446 325 381 325 l 515 325 q 638 386 597 325 l 818 288 q 713 183 778 222 q 565 139 647 144 l 565 -92 l 363 -92 l 363 140 q 144 247 229 150 q 60 486 60 343 q 144 726 60 629 q 363 832 229 822 z "},"¥":{"ha":1204,"x_min":56,"x_max":1149,"o":"m 56 972 l 356 972 l 601 622 l 847 972 l 1147 972 l 843 542 l 953 542 l 953 383 l 731 383 l 731 328 l 953 328 l 953 169 l 731 169 l 731 0 l 472 0 l 472 169 l 250 169 l 250 328 l 472 328 l 472 383 l 250 383 l 250 542 l 360 542 l 56 972 z "},"«":{"ha":888,"x_min":50,"x_max":838,"o":"m 492 786 l 297 486 l 492 186 l 244 186 l 50 486 l 244 786 l 492 786 m 394 486 l 589 786 l 836 786 l 642 486 l 836 186 l 589 186 l 394 486 z "},"­":{"ha":0,"x_min":0,"x_max":0,"o":""},"»":{"ha":888,"x_min":50,"x_max":836,"o":"m 50 186 l 244 486 l 50 786 l 297 786 l 492 486 l 297 186 l 50 186 m 394 786 l 642 786 l 836 486 l 642 186 l 394 186 l 589 486 l 394 786 z "},"À":{"ha":1157,"x_min":-3,"x_max":1158,"o":"m 428 972 l 728 972 l 1158 0 l 886 0 l 782 236 l 374 236 l 269 0 l -3 0 l 428 972 m 538 1278 l 654 1079 l 493 1079 l 279 1278 l 538 1278 m 464 439 l 692 439 l 578 696 l 464 439 z "},"Á":{"ha":1156,"x_min":-3,"x_max":1158,"o":"m 428 972 l 728 972 l 1158 0 l 886 0 l 782 236 l 374 236 l 269 0 l -3 0 l 428 972 m 464 439 l 692 439 l 578 696 l 464 439 m 501 1079 l 618 1278 l 876 1278 l 663 1079 l 501 1079 z "},"Â":{"ha":1156,"x_min":-3,"x_max":1158,"o":"m 428 972 l 728 972 l 1158 0 l 886 0 l 782 236 l 374 236 l 269 0 l -3 0 l 428 972 m 478 1288 l 678 1288 l 872 1079 l 658 1079 l 578 1208 l 497 1079 l 283 1079 l 478 1288 m 464 439 l 692 439 l 578 696 l 464 439 z "},"Ã":{"ha":1156,"x_min":-3,"x_max":1158,"o":"m 428 972 l 728 972 l 1158 0 l 886 0 l 782 236 l 374 236 l 269 0 l -3 0 l 428 972 m 483 1250 q 574 1230 522 1250 q 650 1210 626 1210 q 675 1223 665 1210 q 685 1256 685 1236 l 790 1228 q 758 1119 790 1158 q 663 1079 725 1079 q 577 1101 626 1079 q 506 1124 528 1124 q 481 1115 490 1124 q 471 1092 471 1106 l 365 1119 q 395 1215 365 1181 q 483 1250 425 1250 m 464 439 l 692 439 l 578 696 l 464 439 z "},"Ä":{"ha":1156,"x_min":-3,"x_max":1158,"o":"m 428 972 l 728 972 l 1158 0 l 886 0 l 782 236 l 374 236 l 269 0 l -3 0 l 428 972 m 368 1131 l 368 1189 q 383 1226 368 1211 q 419 1240 397 1240 l 503 1240 q 540 1226 525 1240 q 554 1189 554 1211 l 554 1131 q 540 1094 554 1108 q 503 1079 525 1079 l 419 1079 q 383 1094 397 1079 q 368 1131 368 1108 m 464 439 l 692 439 l 578 696 l 464 439 m 601 1131 l 601 1189 q 616 1226 601 1211 q 653 1240 631 1240 l 736 1240 q 773 1226 758 1240 q 788 1189 788 1211 l 788 1131 q 773 1094 788 1108 q 736 1079 758 1079 l 653 1079 q 616 1094 631 1079 q 601 1131 601 1108 z "},"Å":{"ha":1156,"x_min":-3,"x_max":1158,"o":"m 428 972 l 728 972 l 1158 0 l 886 0 l 782 236 l 374 236 l 269 0 l -3 0 l 428 972 m 465 1120 q 442 1141 465 1120 q 419 1224 419 1161 q 465 1327 419 1286 q 578 1368 510 1368 q 691 1327 646 1368 q 736 1224 736 1286 q 691 1120 736 1161 q 578 1079 646 1079 q 465 1120 510 1079 m 464 439 l 692 439 l 578 696 l 464 439 m 524 1277 q 514 1266 524 1277 q 503 1224 503 1256 q 524 1170 503 1192 q 578 1149 546 1149 q 631 1170 610 1149 q 653 1224 653 1192 q 631 1277 653 1256 q 578 1299 610 1299 q 524 1277 546 1299 z "},"Æ":{"ha":1692,"x_min":-3,"x_max":1643,"o":"m 1642 972 l 1642 769 l 1053 769 l 1053 647 l 1575 647 l 1575 444 l 1053 444 l 1053 203 l 1642 203 l 1642 0 l 794 0 l 794 236 l 374 236 l 269 0 l -3 0 l 428 972 l 1642 972 m 464 439 l 794 439 l 794 769 l 610 769 l 464 439 z "},"Ç":{"ha":1035,"x_min":36,"x_max":1017,"o":"m 36 486 q 167 835 36 697 q 500 972 299 972 l 656 972 q 860 927 767 972 q 1017 800 953 882 l 808 678 q 617 769 736 769 l 553 769 q 372 689 443 769 q 300 486 300 608 q 372 283 300 364 q 553 203 443 203 l 617 203 q 808 294 736 203 l 1017 172 q 860 45 953 90 q 656 0 767 0 l 614 0 l 608 -35 q 658 -31 632 -31 q 756 -64 719 -31 q 793 -154 793 -97 q 755 -245 793 -211 q 651 -279 717 -279 l 631 -187 q 663 -178 650 -187 q 675 -154 675 -169 q 665 -131 675 -140 q 636 -122 654 -122 q 593 -133 607 -122 l 479 -117 l 496 0 q 166 140 296 3 q 36 486 36 276 z "},"È":{"ha":972,"x_min":76,"x_max":924,"o":"m 76 972 l 924 972 l 924 769 l 335 769 l 335 647 l 857 647 l 857 444 l 335 444 l 335 203 l 924 203 l 924 0 l 76 0 l 76 972 m 271 1278 l 529 1278 l 646 1079 l 485 1079 l 271 1278 z "},"É":{"ha":972,"x_min":76,"x_max":924,"o":"m 76 972 l 924 972 l 924 769 l 335 769 l 335 647 l 857 647 l 857 444 l 335 444 l 335 203 l 924 203 l 924 0 l 76 0 l 76 972 m 493 1079 l 610 1278 l 868 1278 l 654 1079 l 493 1079 z "},"Ê":{"ha":972,"x_min":76,"x_max":924,"o":"m 76 972 l 924 972 l 924 769 l 335 769 l 335 647 l 857 647 l 857 444 l 335 444 l 335 203 l 924 203 l 924 0 l 76 0 l 76 972 m 275 1079 l 469 1288 l 669 1288 l 864 1079 l 650 1079 l 569 1208 l 489 1079 l 275 1079 z "},"Ë":{"ha":972,"x_min":76,"x_max":924,"o":"m 76 972 l 924 972 l 924 769 l 335 769 l 335 647 l 857 647 l 857 444 l 335 444 l 335 203 l 924 203 l 924 0 l 76 0 l 76 972 m 360 1131 l 360 1189 q 374 1226 360 1211 q 411 1240 389 1240 l 494 1240 q 531 1226 517 1240 q 546 1189 546 1211 l 546 1131 q 531 1094 546 1108 q 494 1079 517 1079 l 411 1079 q 374 1094 389 1079 q 360 1131 360 1108 m 593 1131 l 593 1189 q 608 1226 593 1211 q 644 1240 622 1240 l 728 1240 q 765 1226 750 1240 q 779 1189 779 1211 l 779 1131 q 765 1094 779 1108 q 728 1079 750 1079 l 644 1079 q 608 1094 622 1079 q 593 1131 593 1108 z "},"Ì":{"ha":521,"x_min":-39,"x_max":474,"o":"m -39 1278 l 219 1278 l 336 1079 l 175 1079 l -39 1278 m 472 972 l 472 769 l 389 769 l 389 203 l 472 203 l 472 0 l 47 0 l 47 203 l 131 203 l 131 769 l 47 769 l 47 972 l 472 972 z "},"Í":{"ha":519,"x_min":47,"x_max":558,"o":"m 472 972 l 472 769 l 389 769 l 389 203 l 472 203 l 472 0 l 47 0 l 47 203 l 131 203 l 131 769 l 47 769 l 47 972 l 472 972 m 300 1278 l 558 1278 l 344 1079 l 183 1079 l 300 1278 z "},"Î":{"ha":519,"x_min":-35,"x_max":554,"o":"m -35 1079 l 160 1288 l 360 1288 l 554 1079 l 340 1079 l 260 1208 l 179 1079 l -35 1079 m 472 972 l 472 769 l 389 769 l 389 203 l 472 203 l 472 0 l 47 0 l 47 203 l 131 203 l 131 769 l 47 769 l 47 972 l 472 972 z "},"Ï":{"ha":519,"x_min":47,"x_max":472,"o":"m 472 972 l 472 769 l 389 769 l 389 203 l 472 203 l 472 0 l 47 0 l 47 203 l 131 203 l 131 769 l 47 769 l 47 972 l 472 972 m 50 1131 l 50 1189 q 65 1226 50 1211 q 101 1240 79 1240 l 185 1240 q 222 1226 207 1240 q 236 1189 236 1211 l 236 1131 q 222 1094 236 1108 q 185 1079 207 1079 l 101 1079 q 65 1094 79 1079 q 50 1131 50 1108 m 283 1131 l 283 1189 q 298 1226 283 1211 q 335 1240 313 1240 l 418 1240 q 455 1226 440 1240 q 469 1189 469 1211 l 469 1131 q 455 1094 469 1108 q 418 1079 440 1079 l 335 1079 q 298 1094 313 1079 q 283 1131 283 1108 z "},"Ð":{"ha":1122,"x_min":35,"x_max":1086,"o":"m 953 835 q 1019 766 953 835 q 1085 486 1085 697 q 953 138 1085 275 q 621 0 822 0 l 118 0 l 118 392 l 35 392 l 35 581 l 118 581 l 118 972 l 621 972 q 953 835 822 972 m 376 203 l 568 203 q 749 283 678 203 q 821 486 821 364 q 749 689 821 608 q 568 769 678 769 l 376 769 l 376 581 l 626 581 l 626 392 l 376 392 l 376 203 z "},"Ñ":{"ha":1121,"x_min":76,"x_max":1043,"o":"m 335 972 q 405 879 353 926 q 514 798 457 832 q 653 713 571 764 q 785 624 735 663 l 785 972 l 1043 972 l 1043 0 l 785 0 l 785 331 q 715 424 767 376 q 606 505 663 471 q 467 590 549 539 q 335 679 385 640 l 335 0 l 76 0 l 76 972 l 335 972 m 347 1119 q 377 1215 347 1181 q 465 1250 407 1250 q 556 1230 504 1250 q 632 1210 608 1210 q 657 1223 647 1210 q 667 1256 667 1236 l 772 1228 q 740 1119 772 1158 q 644 1079 707 1079 q 559 1101 608 1079 q 488 1124 510 1124 q 463 1115 472 1124 q 453 1092 453 1106 l 347 1119 z "},"Ò":{"ha":1157,"x_min":36,"x_max":1121,"o":"m 167 138 q 102 206 167 138 q 36 486 36 275 q 167 835 36 697 q 500 972 299 972 l 656 972 q 988 835 857 972 q 1119 486 1119 697 q 988 138 1119 275 q 656 0 857 0 l 500 0 q 167 138 299 0 m 279 1278 l 538 1278 l 654 1079 l 493 1079 l 279 1278 m 553 769 q 372 689 443 769 q 300 486 300 608 q 372 283 300 364 q 553 203 443 203 l 603 203 q 784 283 713 203 q 856 486 856 364 q 784 689 856 608 q 603 769 713 769 l 553 769 z "},"Ó":{"ha":1157,"x_min":36,"x_max":1121,"o":"m 167 138 q 102 206 167 138 q 36 486 36 275 q 167 835 36 697 q 500 972 299 972 l 656 972 q 988 835 857 972 q 1119 486 1119 697 q 988 138 1119 275 q 656 0 857 0 l 500 0 q 167 138 299 0 m 553 769 q 372 689 443 769 q 300 486 300 608 q 372 283 300 364 q 553 203 443 203 l 603 203 q 784 283 713 203 q 856 486 856 364 q 784 689 856 608 q 603 769 713 769 l 553 769 m 618 1278 l 876 1278 l 663 1079 l 501 1079 l 618 1278 z "},"Ô":{"ha":1157,"x_min":36,"x_max":1121,"o":"m 167 138 q 102 206 167 138 q 36 486 36 275 q 167 835 36 697 q 500 972 299 972 l 656 972 q 988 835 857 972 q 1119 486 1119 697 q 988 138 1119 275 q 656 0 857 0 l 500 0 q 167 138 299 0 m 283 1079 l 478 1288 l 678 1288 l 872 1079 l 658 1079 l 578 1208 l 497 1079 l 283 1079 m 553 769 q 372 689 443 769 q 300 486 300 608 q 372 283 300 364 q 553 203 443 203 l 603 203 q 784 283 713 203 q 856 486 856 364 q 784 689 856 608 q 603 769 713 769 l 553 769 z "},"Õ":{"ha":1157,"x_min":36,"x_max":1121,"o":"m 167 138 q 102 206 167 138 q 36 486 36 275 q 167 835 36 697 q 500 972 299 972 l 656 972 q 988 835 857 972 q 1119 486 1119 697 q 988 138 1119 275 q 656 0 857 0 l 500 0 q 167 138 299 0 m 553 769 q 372 689 443 769 q 300 486 300 608 q 372 283 300 364 q 553 203 443 203 l 603 203 q 784 283 713 203 q 856 486 856 364 q 784 689 856 608 q 603 769 713 769 l 553 769 m 365 1119 q 395 1215 365 1181 q 483 1250 425 1250 q 574 1230 522 1250 q 650 1210 626 1210 q 675 1223 665 1210 q 685 1256 685 1236 l 790 1228 q 758 1119 790 1158 q 663 1079 725 1079 q 577 1101 626 1079 q 506 1124 528 1124 q 481 1115 490 1124 q 471 1092 471 1106 l 365 1119 z "},"Ö":{"ha":1157,"x_min":36,"x_max":1121,"o":"m 167 138 q 102 206 167 138 q 36 486 36 275 q 167 835 36 697 q 500 972 299 972 l 656 972 q 988 835 857 972 q 1119 486 1119 697 q 988 138 1119 275 q 656 0 857 0 l 500 0 q 167 138 299 0 m 553 769 q 372 689 443 769 q 300 486 300 608 q 372 283 300 364 q 553 203 443 203 l 603 203 q 784 283 713 203 q 856 486 856 364 q 784 689 856 608 q 603 769 713 769 l 553 769 m 368 1131 l 368 1189 q 383 1226 368 1211 q 419 1240 397 1240 l 503 1240 q 540 1226 525 1240 q 554 1189 554 1211 l 554 1131 q 540 1094 554 1108 q 503 1079 525 1079 l 419 1079 q 383 1094 397 1079 q 368 1131 368 1108 m 601 1131 l 601 1189 q 616 1226 601 1211 q 653 1240 631 1240 l 736 1240 q 773 1226 758 1240 q 788 1189 788 1211 l 788 1131 q 773 1094 788 1108 q 736 1079 758 1079 l 653 1079 q 616 1094 631 1079 q 601 1131 601 1108 z "},"×":{"ha":719,"x_min":56,"x_max":664,"o":"m 189 776 l 360 615 l 531 776 l 664 643 l 497 486 l 664 329 l 531 196 l 360 357 l 189 196 l 56 329 l 222 486 l 56 643 l 189 776 z "},"Ø":{"ha":1156,"x_min":36,"x_max":1119,"o":"m 1119 486 q 988 138 1119 275 q 656 0 857 0 l 510 0 l 450 -174 l 247 -174 l 319 35 q 113 208 190 88 q 36 486 36 328 q 167 835 36 697 q 500 972 299 972 l 646 972 l 706 1146 l 908 1146 l 836 938 q 1042 765 965 885 q 1119 486 1119 644 m 397 258 l 575 769 l 553 769 q 372 689 443 769 q 300 486 300 608 q 326 356 300 415 q 397 258 351 296 m 581 203 l 603 203 q 784 283 713 203 q 856 486 856 364 q 830 617 856 557 q 758 714 804 676 l 581 203 z "},"Ù":{"ha":1069,"x_min":58,"x_max":1010,"o":"m 613 0 l 457 0 q 172 119 285 0 q 60 422 60 239 l 60 972 l 318 972 l 318 422 q 372 265 318 328 q 510 203 426 203 l 560 203 q 697 265 643 203 q 751 422 751 328 l 751 972 l 1010 972 l 1010 422 q 897 119 1010 239 q 613 0 785 0 m 236 1278 l 494 1278 l 611 1079 l 450 1079 l 236 1278 z "},"Ú":{"ha":1069,"x_min":58,"x_max":1010,"o":"m 613 0 l 457 0 q 172 119 285 0 q 60 422 60 239 l 60 972 l 318 972 l 318 422 q 372 265 318 328 q 510 203 426 203 l 560 203 q 697 265 643 203 q 751 422 751 328 l 751 972 l 1010 972 l 1010 422 q 897 119 1010 239 q 613 0 785 0 m 575 1278 l 833 1278 l 619 1079 l 458 1079 l 575 1278 z "},"Û":{"ha":1069,"x_min":58,"x_max":1010,"o":"m 613 0 l 457 0 q 172 119 285 0 q 60 422 60 239 l 60 972 l 318 972 l 318 422 q 372 265 318 328 q 510 203 426 203 l 560 203 q 697 265 643 203 q 751 422 751 328 l 751 972 l 1010 972 l 1010 422 q 897 119 1010 239 q 613 0 785 0 m 435 1288 l 635 1288 l 829 1079 l 615 1079 l 535 1208 l 454 1079 l 240 1079 l 435 1288 z "},"Ü":{"ha":1069,"x_min":58,"x_max":1010,"o":"m 613 0 l 457 0 q 172 119 285 0 q 60 422 60 239 l 60 972 l 318 972 l 318 422 q 372 265 318 328 q 510 203 426 203 l 560 203 q 697 265 643 203 q 751 422 751 328 l 751 972 l 1010 972 l 1010 422 q 897 119 1010 239 q 613 0 785 0 m 325 1131 l 325 1189 q 340 1226 325 1211 q 376 1240 354 1240 l 460 1240 q 497 1226 482 1240 q 511 1189 511 1211 l 511 1131 q 497 1094 511 1108 q 460 1079 482 1079 l 376 1079 q 340 1094 354 1079 q 325 1131 325 1108 m 558 1131 l 558 1189 q 573 1226 558 1211 q 610 1240 588 1240 l 693 1240 q 730 1226 715 1240 q 744 1189 744 1211 l 744 1131 q 730 1094 744 1108 q 693 1079 715 1079 l 610 1079 q 573 1094 588 1079 q 558 1131 558 1108 z "},"Ý":{"ha":1072,"x_min":-10,"x_max":1082,"o":"m 290 972 l 536 622 l 782 972 l 1082 972 l 665 383 l 665 0 l 407 0 l 407 383 l -10 972 l 290 972 m 576 1278 l 835 1278 l 621 1079 l 460 1079 l 576 1278 z "},"à":{"ha":878,"x_min":39,"x_max":808,"o":"m 132 98 q 85 147 132 98 q 39 347 39 196 q 132 597 39 499 q 369 694 225 694 l 411 694 q 599 614 521 694 l 617 694 l 808 694 l 808 0 l 617 0 l 599 81 q 411 0 521 0 l 369 0 q 132 98 225 0 m 111 1000 l 369 1000 l 486 801 l 325 801 l 111 1000 m 575 325 l 575 369 q 534 469 575 429 q 431 508 493 508 l 419 508 q 316 463 357 508 q 275 347 275 417 q 316 232 275 278 q 419 186 357 186 l 431 186 q 534 226 493 186 q 575 325 575 265 z "},"á":{"ha":878,"x_min":39,"x_max":808,"o":"m 132 98 q 85 147 132 98 q 39 347 39 196 q 132 597 39 499 q 369 694 225 694 l 411 694 q 599 614 521 694 l 617 694 l 808 694 l 808 0 l 617 0 l 599 81 q 411 0 521 0 l 369 0 q 132 98 225 0 m 575 325 l 575 369 q 534 469 575 429 q 431 508 493 508 l 419 508 q 316 463 357 508 q 275 347 275 417 q 316 232 275 278 q 419 186 357 186 l 431 186 q 534 226 493 186 q 575 325 575 265 m 333 801 l 450 1000 l 708 1000 l 494 801 l 333 801 z "},"â":{"ha":878,"x_min":39,"x_max":808,"o":"m 132 98 q 85 147 132 98 q 39 347 39 196 q 132 597 39 499 q 369 694 225 694 l 411 694 q 599 614 521 694 l 617 694 l 808 694 l 808 0 l 617 0 l 599 81 q 411 0 521 0 l 369 0 q 132 98 225 0 m 310 1010 l 510 1010 l 704 801 l 490 801 l 410 931 l 329 801 l 115 801 l 310 1010 m 575 325 l 575 369 q 534 469 575 429 q 431 508 493 508 l 419 508 q 316 463 357 508 q 275 347 275 417 q 316 232 275 278 q 419 186 357 186 l 431 186 q 534 226 493 186 q 575 325 575 265 z "},"ã":{"ha":878,"x_min":39,"x_max":808,"o":"m 132 98 q 85 147 132 98 q 39 347 39 196 q 132 597 39 499 q 369 694 225 694 l 411 694 q 599 614 521 694 l 617 694 l 808 694 l 808 0 l 617 0 l 599 81 q 411 0 521 0 l 369 0 q 132 98 225 0 m 315 972 q 406 952 354 972 q 482 932 458 932 q 507 945 497 932 q 517 978 517 958 l 622 950 q 590 841 622 881 q 494 801 557 801 q 409 824 458 801 q 338 846 360 846 q 313 837 322 846 q 303 814 303 828 l 197 842 q 227 938 197 903 q 315 972 257 972 m 575 325 l 575 369 q 534 469 575 429 q 431 508 493 508 l 419 508 q 316 463 357 508 q 275 347 275 417 q 316 232 275 278 q 419 186 357 186 l 431 186 q 534 226 493 186 q 575 325 575 265 z "},"ä":{"ha":878,"x_min":39,"x_max":808,"o":"m 132 98 q 85 147 132 98 q 39 347 39 196 q 132 597 39 499 q 369 694 225 694 l 411 694 q 599 614 521 694 l 617 694 l 808 694 l 808 0 l 617 0 l 599 81 q 411 0 521 0 l 369 0 q 132 98 225 0 m 200 853 l 200 911 q 215 948 200 933 q 251 963 229 963 l 335 963 q 372 948 357 963 q 386 911 386 933 l 386 853 q 372 816 386 831 q 335 801 357 801 l 251 801 q 215 816 229 801 q 200 853 200 831 m 575 325 l 575 369 q 534 469 575 429 q 431 508 493 508 l 419 508 q 316 463 357 508 q 275 347 275 417 q 316 232 275 278 q 419 186 357 186 l 431 186 q 534 226 493 186 q 575 325 575 265 m 433 853 l 433 911 q 448 948 433 933 q 485 963 463 963 l 568 963 q 605 948 590 963 q 619 911 619 933 l 619 853 q 605 816 619 831 q 568 801 590 801 l 485 801 q 448 816 463 801 q 433 853 433 831 z "},"å":{"ha":878,"x_min":39,"x_max":808,"o":"m 132 98 q 85 147 132 98 q 39 347 39 196 q 132 597 39 499 q 369 694 225 694 l 411 694 q 599 614 521 694 l 617 694 l 808 694 l 808 0 l 617 0 l 599 81 q 411 0 521 0 l 369 0 q 132 98 225 0 m 297 842 q 274 863 297 842 q 251 946 251 883 q 297 1049 251 1008 q 410 1090 342 1090 q 523 1049 478 1090 q 568 946 568 1008 q 523 842 568 883 q 410 801 478 801 q 297 842 342 801 m 575 325 l 575 369 q 534 469 575 429 q 431 508 493 508 l 419 508 q 316 463 357 508 q 275 347 275 417 q 316 232 275 278 q 419 186 357 186 l 431 186 q 534 226 493 186 q 575 325 575 265 m 356 999 q 345 989 356 999 q 335 946 335 978 q 356 892 335 914 q 410 871 378 871 q 463 892 442 871 q 485 946 485 914 q 463 999 485 978 q 410 1021 442 1021 q 356 999 378 1021 z "},"æ":{"ha":1376,"x_min":40,"x_max":1336,"o":"m 560 426 q 506 487 540 465 q 426 508 471 508 l 357 508 q 235 446 275 508 l 54 546 q 169 655 97 615 q 329 694 240 694 l 482 694 q 694 619 606 694 q 907 694 783 694 l 1004 694 q 1241 604 1147 694 q 1335 375 1335 514 l 1290 268 l 831 268 q 963 186 871 186 l 1032 186 q 1154 247 1114 186 l 1335 149 q 1220 40 1292 79 q 1060 0 1149 0 l 907 0 q 665 103 760 0 q 371 0 557 0 l 329 0 q 40 213 40 0 q 399 426 40 426 l 560 426 m 276 213 q 299 183 276 194 q 365 171 322 171 q 508 199 456 171 q 579 268 561 228 l 382 268 q 306 252 336 268 q 276 213 276 236 m 831 426 l 1089 426 q 1041 486 1075 464 q 963 508 1007 508 q 885 486 919 508 q 831 426 850 464 z "},"ç":{"ha":824,"x_min":39,"x_max":799,"o":"m 369 694 l 522 694 q 683 655 611 694 q 797 546 754 615 l 617 446 q 494 508 576 508 l 425 508 q 317 463 360 508 q 275 347 275 418 q 317 231 275 276 q 425 186 360 186 l 494 186 q 617 247 576 186 l 797 149 q 683 40 754 79 q 522 0 611 0 l 492 0 l 486 -35 q 536 -31 510 -31 q 634 -64 597 -31 q 671 -154 671 -97 q 633 -245 671 -211 q 529 -279 594 -279 l 508 -187 q 540 -178 528 -187 q 553 -154 553 -169 q 542 -131 553 -140 q 514 -122 532 -122 q 471 -133 485 -122 l 357 -117 l 374 0 l 369 0 q 132 98 225 0 q 39 347 39 196 q 132 597 39 499 q 369 694 225 694 z "},"è":{"ha":839,"x_min":39,"x_max":799,"o":"m 369 694 l 467 694 q 703 604 610 694 q 797 375 797 514 l 753 268 l 293 268 q 347 208 313 231 q 425 186 382 186 l 494 186 q 617 247 576 186 l 797 149 q 683 40 754 79 q 522 0 611 0 l 369 0 q 132 98 225 0 q 39 347 39 196 q 132 597 39 499 q 369 694 225 694 m 119 1000 l 378 1000 l 494 801 l 333 801 l 119 1000 m 293 426 l 551 426 q 503 486 538 464 q 425 508 469 508 q 347 486 382 508 q 293 426 313 464 z "},"é":{"ha":839,"x_min":39,"x_max":799,"o":"m 369 694 l 467 694 q 703 604 610 694 q 797 375 797 514 l 753 268 l 293 268 q 347 208 313 231 q 425 186 382 186 l 494 186 q 617 247 576 186 l 797 149 q 683 40 754 79 q 522 0 611 0 l 369 0 q 132 98 225 0 q 39 347 39 196 q 132 597 39 499 q 369 694 225 694 m 293 426 l 551 426 q 503 486 538 464 q 425 508 469 508 q 347 486 382 508 q 293 426 313 464 m 342 801 l 458 1000 l 717 1000 l 503 801 l 342 801 z "},"ê":{"ha":839,"x_min":39,"x_max":799,"o":"m 369 694 l 467 694 q 703 604 610 694 q 797 375 797 514 l 753 268 l 293 268 q 347 208 313 231 q 425 186 382 186 l 494 186 q 617 247 576 186 l 797 149 q 683 40 754 79 q 522 0 611 0 l 369 0 q 132 98 225 0 q 39 347 39 196 q 132 597 39 499 q 369 694 225 694 m 124 801 l 318 1010 l 518 1010 l 713 801 l 499 801 l 418 931 l 338 801 l 124 801 m 293 426 l 551 426 q 503 486 538 464 q 425 508 469 508 q 347 486 382 508 q 293 426 313 464 z "},"ë":{"ha":839,"x_min":39,"x_max":799,"o":"m 369 694 l 467 694 q 703 604 610 694 q 797 375 797 514 l 753 268 l 293 268 q 347 208 313 231 q 425 186 382 186 l 494 186 q 617 247 576 186 l 797 149 q 683 40 754 79 q 522 0 611 0 l 369 0 q 132 98 225 0 q 39 347 39 196 q 132 597 39 499 q 369 694 225 694 m 208 853 l 208 911 q 223 948 208 933 q 260 963 238 963 l 343 963 q 380 948 365 963 q 394 911 394 933 l 394 853 q 380 816 394 831 q 343 801 365 801 l 260 801 q 223 816 238 801 q 208 853 208 831 m 293 426 l 551 426 q 503 486 538 464 q 425 508 469 508 q 347 486 382 508 q 293 426 313 464 m 442 853 l 442 911 q 456 948 442 933 q 493 963 471 963 l 576 963 q 613 948 599 963 q 628 911 628 933 l 628 853 q 613 816 628 831 q 576 801 599 801 l 493 801 q 456 816 471 801 q 442 853 442 831 z "},"ì":{"ha":372,"x_min":-112,"x_max":303,"o":"m -112 1000 l 146 1000 l 263 801 l 101 801 l -112 1000 m 303 694 l 303 0 l 69 0 l 69 694 l 303 694 z "},"í":{"ha":372,"x_min":69,"x_max":485,"o":"m 303 694 l 303 0 l 69 0 l 69 694 l 303 694 m 110 801 l 226 1000 l 485 1000 l 271 801 l 110 801 z "},"î":{"ha":372,"x_min":-108,"x_max":481,"o":"m -108 801 l 86 1010 l 286 1010 l 481 801 l 267 801 l 186 931 l 106 801 l -108 801 m 303 694 l 303 0 l 69 0 l 69 694 l 303 694 z "},"ï":{"ha":372,"x_min":-24,"x_max":396,"o":"m -24 853 l -24 911 q -9 948 -24 933 q 28 963 6 963 l 111 963 q 148 948 133 963 q 163 911 163 933 l 163 853 q 148 816 163 831 q 111 801 133 801 l 28 801 q -9 816 6 801 q -24 853 -24 831 m 303 694 l 303 0 l 69 0 l 69 694 l 303 694 m 210 853 l 210 911 q 224 948 210 933 q 261 963 239 963 l 344 963 q 381 948 367 963 q 396 911 396 933 l 396 853 q 381 816 396 831 q 344 801 367 801 l 261 801 q 224 816 239 801 q 210 853 210 831 z "},"ñ":{"ha":892,"x_min":69,"x_max":836,"o":"m 458 508 l 447 508 q 343 470 383 508 q 303 369 303 432 l 303 0 l 69 0 l 69 694 l 261 694 l 278 618 q 467 694 351 694 l 522 694 q 751 606 665 694 q 836 369 836 518 l 836 0 l 603 0 l 603 369 q 563 470 603 432 q 458 508 522 508 m 386 972 q 477 952 425 972 q 553 932 529 932 q 578 945 568 932 q 588 978 588 958 l 693 950 q 660 841 693 881 q 565 801 628 801 q 481 824 531 801 q 408 846 432 846 q 383 837 393 846 q 374 814 374 828 l 268 842 q 298 938 268 903 q 386 972 328 972 z "},"ò":{"ha":878,"x_min":39,"x_max":839,"o":"m 132 98 q 85 147 132 98 q 39 347 39 196 q 132 597 39 499 q 369 694 225 694 l 508 694 q 746 597 653 694 q 839 347 839 499 q 746 98 839 196 q 508 0 653 0 l 369 0 q 132 98 225 0 m 140 1000 l 399 1000 l 515 801 l 354 801 l 140 1000 m 453 186 q 560 231 518 186 q 603 347 603 276 q 560 463 603 418 q 453 508 518 508 l 425 508 q 317 463 360 508 q 275 347 275 418 q 317 231 275 276 q 425 186 360 186 l 453 186 z "},"ó":{"ha":878,"x_min":39,"x_max":839,"o":"m 132 98 q 85 147 132 98 q 39 347 39 196 q 132 597 39 499 q 369 694 225 694 l 508 694 q 746 597 653 694 q 839 347 839 499 q 746 98 839 196 q 508 0 653 0 l 369 0 q 132 98 225 0 m 453 186 q 560 231 518 186 q 603 347 603 276 q 560 463 603 418 q 453 508 518 508 l 425 508 q 317 463 360 508 q 275 347 275 418 q 317 231 275 276 q 425 186 360 186 l 453 186 m 479 1000 l 738 1000 l 524 801 l 363 801 l 479 1000 z "},"ô":{"ha":878,"x_min":39,"x_max":839,"o":"m 132 98 q 85 147 132 98 q 39 347 39 196 q 132 597 39 499 q 369 694 225 694 l 508 694 q 746 597 653 694 q 839 347 839 499 q 746 98 839 196 q 508 0 653 0 l 369 0 q 132 98 225 0 m 144 801 l 339 1010 l 539 1010 l 733 801 l 519 801 l 439 931 l 358 801 l 144 801 m 453 186 q 560 231 518 186 q 603 347 603 276 q 560 463 603 418 q 453 508 518 508 l 425 508 q 317 463 360 508 q 275 347 275 418 q 317 231 275 276 q 425 186 360 186 l 453 186 z "},"õ":{"ha":878,"x_min":39,"x_max":839,"o":"m 132 98 q 85 147 132 98 q 39 347 39 196 q 132 597 39 499 q 369 694 225 694 l 508 694 q 746 597 653 694 q 839 347 839 499 q 746 98 839 196 q 508 0 653 0 l 369 0 q 132 98 225 0 m 344 972 q 435 952 383 972 q 511 932 488 932 q 536 945 526 932 q 546 978 546 958 l 651 950 q 619 841 651 881 q 524 801 586 801 q 440 824 489 801 q 367 846 390 846 q 342 837 351 846 q 332 814 332 828 l 226 842 q 256 938 226 903 q 344 972 286 972 m 453 186 q 560 231 518 186 q 603 347 603 276 q 560 463 603 418 q 453 508 518 508 l 425 508 q 317 463 360 508 q 275 347 275 418 q 317 231 275 276 q 425 186 360 186 l 453 186 z "},"ö":{"ha":878,"x_min":39,"x_max":839,"o":"m 132 98 q 85 147 132 98 q 39 347 39 196 q 132 597 39 499 q 369 694 225 694 l 508 694 q 746 597 653 694 q 839 347 839 499 q 746 98 839 196 q 508 0 653 0 l 369 0 q 132 98 225 0 m 229 853 l 229 911 q 244 948 229 933 q 281 963 258 963 l 364 963 q 401 948 386 963 q 415 911 415 933 l 415 853 q 401 816 415 831 q 364 801 386 801 l 281 801 q 244 816 258 801 q 229 853 229 831 m 453 186 q 560 231 518 186 q 603 347 603 276 q 560 463 603 418 q 453 508 518 508 l 425 508 q 317 463 360 508 q 275 347 275 418 q 317 231 275 276 q 425 186 360 186 l 453 186 m 463 853 l 463 911 q 477 948 463 933 q 514 963 492 963 l 597 963 q 634 948 619 963 q 649 911 649 933 l 649 853 q 634 816 649 831 q 597 801 619 801 l 514 801 q 477 816 492 801 q 463 853 463 831 z "},"÷":{"ha":753,"x_min":46,"x_max":707,"o":"m 46 581 l 707 581 l 707 392 l 46 392 l 46 581 m 283 678 q 264 697 283 678 q 244 771 244 717 q 283 864 244 825 q 376 903 322 903 q 469 864 431 903 q 508 771 508 825 q 469 678 508 717 q 376 639 431 639 q 283 678 322 639 m 283 108 q 264 128 283 108 q 244 201 244 147 q 283 294 244 256 q 376 333 322 333 q 469 294 431 333 q 508 201 508 256 q 469 108 508 147 q 376 69 431 69 q 283 108 322 69 z "},"ø":{"ha":878,"x_min":38,"x_max":839,"o":"m 628 674 q 782 550 725 638 q 839 347 839 463 q 746 98 839 196 q 508 0 653 0 l 429 0 l 386 -146 l 200 -146 l 250 21 q 96 144 153 57 q 39 347 39 232 q 132 597 39 499 q 369 694 225 694 l 449 694 l 492 840 l 678 840 l 628 674 m 313 236 l 393 506 q 308 451 340 494 q 275 347 275 408 q 313 236 275 281 m 603 347 q 565 458 603 414 l 485 189 q 570 243 538 200 q 603 347 603 286 z "},"ù":{"ha":892,"x_min":56,"x_max":822,"o":"m 433 186 l 444 186 q 549 224 508 186 q 589 325 589 263 l 589 694 l 822 694 l 822 0 l 631 0 l 614 76 q 425 0 540 0 l 369 0 q 141 88 226 0 q 56 325 56 176 l 56 694 l 289 694 l 289 325 q 329 224 289 263 q 433 186 369 186 m 140 1000 l 399 1000 l 515 801 l 354 801 l 140 1000 z "},"ú":{"ha":892,"x_min":56,"x_max":822,"o":"m 433 186 l 444 186 q 549 224 508 186 q 589 325 589 263 l 589 694 l 822 694 l 822 0 l 631 0 l 614 76 q 425 0 540 0 l 369 0 q 141 88 226 0 q 56 325 56 176 l 56 694 l 289 694 l 289 325 q 329 224 289 263 q 433 186 369 186 m 479 1000 l 738 1000 l 524 801 l 363 801 l 479 1000 z "},"û":{"ha":892,"x_min":56,"x_max":822,"o":"m 433 186 l 444 186 q 549 224 508 186 q 589 325 589 263 l 589 694 l 822 694 l 822 0 l 631 0 l 614 76 q 425 0 540 0 l 369 0 q 141 88 226 0 q 56 325 56 176 l 56 694 l 289 694 l 289 325 q 329 224 289 263 q 433 186 369 186 m 144 801 l 339 1010 l 539 1010 l 733 801 l 519 801 l 439 931 l 358 801 l 144 801 z "},"ü":{"ha":892,"x_min":56,"x_max":822,"o":"m 433 186 l 444 186 q 549 224 508 186 q 589 325 589 263 l 589 694 l 822 694 l 822 0 l 631 0 l 614 76 q 425 0 540 0 l 369 0 q 141 88 226 0 q 56 325 56 176 l 56 694 l 289 694 l 289 325 q 329 224 289 263 q 433 186 369 186 m 229 853 l 229 911 q 244 948 229 933 q 281 963 258 963 l 364 963 q 401 948 386 963 q 415 911 415 933 l 415 853 q 401 816 415 831 q 364 801 386 801 l 281 801 q 244 816 258 801 q 229 853 229 831 m 463 853 l 463 911 q 477 948 463 933 q 514 963 492 963 l 597 963 q 634 948 619 963 q 649 911 649 933 l 649 853 q 634 816 649 831 q 597 801 619 801 l 514 801 q 477 816 492 801 q 463 853 463 831 z "},"ý":{"ha":879,"x_min":7,"x_max":871,"o":"m 7 694 l 256 694 l 447 260 l 621 694 l 869 694 l 614 54 q 486 -151 564 -71 q 281 -278 408 -232 l 179 -96 q 317 -10 265 -67 l 7 694 m 479 1000 l 738 1000 l 524 801 l 363 801 l 479 1000 z "},"ÿ":{"ha":879,"x_min":7,"x_max":871,"o":"m 7 694 l 256 694 l 447 260 l 621 694 l 869 694 l 614 54 q 486 -151 564 -71 q 281 -278 408 -232 l 179 -96 q 317 -10 265 -67 l 7 694 m 229 853 l 229 911 q 244 948 229 933 q 281 963 258 963 l 364 963 q 401 948 386 963 q 415 911 415 933 l 415 853 q 401 816 415 831 q 364 801 386 801 l 281 801 q 244 816 258 801 q 229 853 229 831 m 463 853 l 463 911 q 477 948 463 933 q 514 963 492 963 l 597 963 q 634 948 619 963 q 649 911 649 933 l 649 853 q 634 816 649 831 q 597 801 619 801 l 514 801 q 477 816 492 801 q 463 853 463 831 z "},"‘":{"ha":314,"x_min":44,"x_max":268,"o":"m 235 731 l 46 731 l 163 1026 l 268 1026 l 235 731 z "},"’":{"ha":297,"x_min":51,"x_max":274,"o":"m 85 1026 l 274 1026 l 157 731 l 51 731 l 85 1026 z "},"“":{"ha":529,"x_min":46,"x_max":485,"o":"m 46 731 l 163 1026 l 268 1026 l 235 731 l 46 731 m 451 731 l 263 731 l 379 1026 l 485 1026 l 451 731 z "},"”":{"ha":514,"x_min":51,"x_max":490,"o":"m 85 1026 l 274 1026 l 157 731 l 51 731 l 85 1026 m 268 731 l 301 1026 l 490 1026 l 374 731 l 268 731 z "},"‹":{"ha":543,"x_min":50,"x_max":493,"o":"m 492 786 l 297 486 l 492 186 l 244 186 l 50 486 l 244 786 l 492 786 z "},"›":{"ha":543,"x_min":50,"x_max":492,"o":"m 50 786 l 297 786 l 492 486 l 297 186 l 50 186 l 244 486 l 50 786 z "},"€":{"ha":1192,"x_min":60,"x_max":1139,"o":"m 158 514 l 61 514 l 61 672 l 190 672 q 356 891 240 810 q 622 972 471 972 l 778 972 q 982 927 889 972 q 1139 800 1075 882 l 931 678 q 739 769 858 769 l 675 769 q 481 672 551 769 l 764 672 l 764 514 l 424 514 q 422 486 422 504 l 424 458 l 764 458 l 764 300 l 481 300 q 675 203 551 203 l 739 203 q 931 294 858 203 l 1139 172 q 982 45 1075 90 q 778 0 889 0 l 622 0 q 356 81 471 0 q 190 300 240 163 l 61 300 l 61 458 l 158 458 l 158 514 z "},"":{"ha":882,"x_min":22,"x_max":813,"o":"m 367 0 l 133 0 l 133 536 l 22 536 l 22 694 l 136 694 q 233 898 150 824 q 447 972 315 972 l 525 972 q 660 940 597 972 q 758 851 724 907 l 578 751 q 497 786 554 786 q 416 762 449 786 q 372 694 383 738 l 811 694 l 811 29 q 759 -166 811 -86 q 614 -278 707 -246 l 513 -96 q 578 29 578 -61 l 578 536 l 367 536 l 367 0 z "},"":{"ha":5147,"x_min":69,"x_max":5079,"o":"m 1850 614 l 1868 694 l 2060 694 l 2060 0 l 1868 0 l 1850 81 q 1663 0 1772 0 l 1621 0 q 1384 98 1478 0 q 1290 347 1290 196 q 1384 597 1290 499 q 1621 694 1478 694 l 1663 694 q 1850 614 1772 694 m 1826 325 l 1826 369 q 1785 469 1826 429 q 1682 508 1744 508 l 1671 508 q 1567 463 1608 508 q 1526 347 1526 417 q 1567 232 1526 278 q 1671 186 1608 186 l 1682 186 q 1785 226 1744 186 q 1826 325 1826 265 m 2685 636 l 2685 972 l 2918 972 l 2918 0 l 2726 0 l 2708 81 q 2521 0 2631 0 l 2479 0 q 2242 98 2336 0 q 2149 347 2149 196 q 2242 597 2149 499 q 2479 694 2336 694 l 2521 694 q 2685 636 2615 694 m 2685 325 l 2685 369 q 2644 469 2685 429 q 2540 508 2603 508 l 2529 508 q 2426 463 2467 508 q 2385 347 2385 417 q 2426 232 2385 278 q 2529 186 2467 186 l 2540 186 q 2644 226 2603 186 q 2685 325 2685 265 m 4775 186 q 4897 247 4858 186 l 5078 149 q 4963 40 5035 79 q 4803 0 4892 0 l 4650 0 q 4413 98 4507 0 q 4319 347 4319 196 q 4413 597 4319 499 q 4650 694 4507 694 l 4747 694 q 4985 604 4892 694 q 5078 375 5078 514 l 5033 268 l 4574 268 q 4628 208 4593 231 q 4706 186 4663 186 l 4775 186 m 4706 508 q 4628 486 4663 508 q 4574 426 4593 464 l 4832 426 q 4785 486 4819 464 q 4706 508 4751 508 m 619 810 l 881 810 l 769 604 q 869 347 869 504 q 776 98 869 196 q 539 0 683 0 l 479 0 l 440 -92 l 578 -92 q 700 -31 660 -92 l 881 -129 q 766 -238 838 -199 q 606 -278 694 -278 l 139 -278 l 139 -203 l 243 38 q 116 161 163 79 q 69 347 69 243 q 163 597 69 499 q 400 694 256 694 l 539 694 q 589 692 556 694 l 619 810 m 483 186 q 591 231 549 186 q 633 347 633 276 q 591 463 633 418 q 483 508 549 508 l 456 508 q 348 463 390 508 q 306 347 306 418 q 348 231 306 276 q 456 186 390 186 l 483 186 m 3311 794 l 3078 794 l 3078 972 l 3311 972 l 3311 794 m 3311 0 l 3078 0 l 3078 694 l 3311 694 l 3311 0 m 1201 0 l 968 0 l 968 972 l 1201 972 l 1201 0 m 3924 694 q 4152 606 4067 694 q 4238 369 4238 518 l 4238 0 l 4004 0 l 4004 369 q 3963 470 4004 432 q 3860 508 3922 508 l 3849 508 q 3744 470 3785 508 q 3704 369 3704 432 l 3704 0 l 3471 0 l 3471 694 l 3663 694 l 3679 618 q 3868 694 3753 694 l 3924 694 z "},"":{"ha":5147,"x_min":69,"x_max":5079,"o":"m 1850 614 l 1868 694 l 2060 694 l 2060 0 l 1868 0 l 1850 81 q 1663 0 1772 0 l 1621 0 q 1384 98 1478 0 q 1290 347 1290 196 q 1384 597 1290 499 q 1621 694 1478 694 l 1663 694 q 1850 614 1772 694 m 1826 325 l 1826 369 q 1785 469 1826 429 q 1682 508 1744 508 l 1671 508 q 1567 463 1608 508 q 1526 347 1526 417 q 1567 232 1526 278 q 1671 186 1608 186 l 1682 186 q 1785 226 1744 186 q 1826 325 1826 265 m 2685 636 l 2685 972 l 2918 972 l 2918 0 l 2726 0 l 2708 81 q 2521 0 2631 0 l 2479 0 q 2242 98 2336 0 q 2149 347 2149 196 q 2242 597 2149 499 q 2479 694 2336 694 l 2521 694 q 2685 636 2615 694 m 2685 325 l 2685 369 q 2644 469 2685 429 q 2540 508 2603 508 l 2529 508 q 2426 463 2467 508 q 2385 347 2385 417 q 2426 232 2385 278 q 2529 186 2467 186 l 2540 186 q 2644 226 2603 186 q 2685 325 2685 265 m 4775 186 q 4897 247 4858 186 l 5078 149 q 4963 40 5035 79 q 4803 0 4892 0 l 4650 0 q 4413 98 4507 0 q 4319 347 4319 196 q 4413 597 4319 499 q 4650 694 4507 694 l 4747 694 q 4985 604 4892 694 q 5078 375 5078 514 l 5033 268 l 4574 268 q 4628 208 4593 231 q 4706 186 4663 186 l 4775 186 m 4706 508 q 4628 486 4663 508 q 4574 426 4593 464 l 4832 426 q 4785 486 4819 464 q 4706 508 4751 508 m 619 810 l 881 810 l 769 604 q 869 347 869 504 q 776 98 869 196 q 539 0 683 0 l 479 0 l 440 -92 l 578 -92 q 700 -31 660 -92 l 881 -129 q 766 -238 838 -199 q 606 -278 694 -278 l 139 -278 l 139 -203 l 243 38 q 116 161 163 79 q 69 347 69 243 q 163 597 69 499 q 400 694 256 694 l 539 694 q 589 692 556 694 l 619 810 m 483 186 q 591 231 549 186 q 633 347 633 276 q 591 463 633 418 q 483 508 549 508 l 456 508 q 348 463 390 508 q 306 347 306 418 q 348 231 306 276 q 456 186 390 186 l 483 186 m 3311 0 l 3078 0 l 3078 694 l 3311 694 l 3311 0 m 3311 794 l 3078 794 l 3078 972 l 3311 972 l 3311 794 m 1201 0 l 968 0 l 968 972 l 1201 972 l 1201 0 m 3924 694 q 4152 606 4067 694 q 4238 369 4238 518 l 4238 0 l 4004 0 l 4004 369 q 3963 470 4004 432 q 3860 508 3922 508 l 3849 508 q 3744 470 3785 508 q 3704 369 3704 432 l 3704 0 l 3471 0 l 3471 694 l 3663 694 l 3679 618 q 3868 694 3753 694 l 3924 694 z "},"ﬁ":{"ha":882,"x_min":22,"x_max":813,"o":"m 367 0 l 133 0 l 133 536 l 22 536 l 22 694 l 136 694 q 233 898 150 824 q 447 972 315 972 l 525 972 q 660 940 597 972 q 758 851 724 907 l 578 751 q 497 786 554 786 q 416 762 449 786 q 372 694 383 738 l 811 694 l 811 0 l 578 0 l 578 536 l 367 536 l 367 0 z "}}}
